<svg width="24" height="24" viewBox="0 0 24 24" fill="none" xmlns="http://www.w3.org/2000/svg">
<path d="M22.6699 0H1.33012C0.578313 0 0 0.578313 0 1.33012V22.6699C0 23.4217 0.578313 24 1.33012 24H12.8386V14.6892H9.71566V11.0458H12.8386V8.38554C12.8386 5.26265 14.747 3.58554 17.4651 3.58554C18.7952 3.58554 19.9518 3.7012 20.241 3.7012V6.93976H18.3325C16.8289 6.93976 16.5398 7.63374 16.5398 8.6747V10.988H20.1253L19.6627 14.6892H16.5398V24H22.6699C23.4217 24 24 23.4217 24 22.6699V1.33012C23.9422 0.578313 23.3639 0 22.6699 0Z" fill="#3333FF"/>
</svg>
