<svg width="24" height="20" viewBox="0 0 24 20" fill="none" xmlns="http://www.w3.org/2000/svg">
<path d="M7.56 19.5C16.62 19.5 21.54 12 21.54 5.52C21.54 5.28 21.54 5.1 21.54 4.86C22.5 4.14 23.34 3.3 24 2.34C23.1 2.76 22.14 3 21.18 3.12C22.2 2.52 22.98 1.56 23.34 0.42C22.38 0.96 21.36 1.38 20.22 1.62C19.32 0.6 18.06 0 16.62 0C13.92 0 11.7 2.22 11.7 4.92C11.7 5.28 11.76 5.7 11.82 6.06C7.74 5.82 4.08 3.9 1.68 0.9C1.26 1.62 1.02 2.46 1.02 3.36C1.02 5.04 1.86 6.6 3.24 7.44C2.46 7.44 1.68 7.2 1.02 6.84V6.9C1.02 9.3 2.7 11.28 4.98 11.7C4.56 11.82 4.14 11.88 3.66 11.88C3.36 11.88 3.06 11.82 2.76 11.82C3.36 13.8 5.22 15.18 7.38 15.24C5.58 16.56 3.48 17.34 1.2 17.34C0.78 17.34 0.42 17.34 0 17.28C2.16 18.66 4.74 19.5 7.56 19.5Z" transform="translate(0 0.399536)" fill="#3333FF"/>
</svg>
