<svg width="30" height="33" viewBox="0 0 30 33" fill="none" xmlns="http://www.w3.org/2000/svg">
<path fill-rule="evenodd" clip-rule="evenodd" d="M6.60986 2.40015L5.44287 0H1.20166C0.53418 0 0 0.533447 0 1.19995C0 1.8667 0.53418 2.40015 1.20166 2.40015H6.60986ZM11.2739 2.40015H13.2441C13.9121 2.40015 14.4458 1.8667 14.4458 1.19995C14.4194 0.533447 13.8853 0 13.2178 0H10.0957L11.2739 2.40015Z" transform="translate(4.37744 18.3665)" fill="#FFBF00"/>
<path d="M1.2016 11.3873H13.0574H13.0841L13.8585 11.3606H13.8318C16.9559 11.3606 19.5194 8.82715 19.5194 5.68031C19.5194 2.56014 16.9826 0 13.8318 0C13.8585 0 12.9239 0 12.9239 0C12.8972 0 1.2016 0 1.2016 0C0.534046 0 0 0.533363 0 1.20007C0 1.86677 0.534046 2.40013 1.2016 2.40013H12.8972C12.8705 2.40013 13.8051 2.40013 13.8051 2.40013C15.6208 2.40013 17.0895 3.86688 17.0895 5.68031C17.0895 7.49374 15.6208 8.96049 13.8051 8.96049H13.7784L13.004 8.98716H13.0307H1.2016C0.534046 8.98716 0 9.52052 0 10.1872C0 10.8539 0.534046 11.3873 1.2016 11.3873Z" transform="translate(0.0234375 0.500488)" fill="#BF0000"/>
<path d="M13.9119 0H1.2016C0.534047 0 0 0.533362 0 1.20007C0 1.86677 0.534047 2.40013 1.2016 2.40013H13.9119C14.5794 2.40013 15.1135 1.86677 15.1135 1.20007C15.1135 0.533362 14.5794 0 13.9119 0Z" transform="translate(0.0273438 5.0061)" fill="white"/>
<path d="M28.8385 0.0658217C28.2243 -0.147523 27.5301 0.172494 27.3164 0.812529L18.3178 27.054L12.2563 14.3866H19.733C20.4005 14.3866 20.9346 13.8532 20.9346 13.1865C20.9346 12.5198 20.4005 11.9865 19.733 11.9865H1.2016C0.534045 11.9865 0 12.5198 0 13.1865V30.1741C0 30.8408 0.534045 31.3742 1.2016 31.3742C1.86916 31.3742 2.4032 30.8408 2.4032 30.1741V14.3599H9.58612L17.3832 30.7075C17.5968 31.1342 18.0507 31.4275 18.5314 31.3742C19.012 31.3475 19.4393 31.0275 19.5995 30.5742L29.5861 1.5859C29.7997 0.945869 29.4793 0.279167 28.8385 0.0658217Z" transform="translate(0 1.39478)" fill="white"/>
</svg>
