<svg xmlns="http://www.w3.org/2000/svg" viewBox="0 0 80 29.3"><style type="text/css">  
	.st0{fill-rule:evenodd;clip-rule:evenodd;fill:#BF0000;}
	.st1{fill-rule:evenodd;clip-rule:evenodd;fill:#FFBF00;}
</style><path class="st0" d="M14.7 1.7c1.4-0.2 3.4-0.4 3.4-0.4 6.6-2.1 7.1 0.5 7.1 0.5 -1.1 7.3-4.3 14.1-2.9 22.6 1.5 2 3.2 0.5 7.2-2 0 0 3.7 0 2.2 2.4 -1.1 1.7-4.3 4.2-7.8 4.3 -10.2-0.7-6.1-16.4-4.4-23.3 -0.7 0-1.9-0.4-2.2-0.9 -4.5 10-9.5 22.9-14.4 24.5 -3.8-1.9-4-4.4 1.2-8.6C8.7 17.1 14.7 1.7 14.7 1.7z"/><path class="st1" d="M28 14.6c-1 0-2.3 0.2-3 0.6 -1.1 0.6-1 1.5-0.9 2.8 1.2 0.1 5.7 0.7 6.5-0.3 0.5-0.6 0.3-2.4-0.2-2.7 -0.4-0.3-2.8-0.3-3.4-0.4"/><path d="M73.7 1.2c-4.9 7.4-7.5 15.5-13.8 21.5 -1.5-6.6 2-13.8 1-19.9 -1-0.4-3.2-0.7-4 0 -3.1 6-5.8 13.8-10.4 18.3 -0.5 0.4-0.8 0.7-0.8 0.7s0 0 0 0c-1.3 1-3.5 2.3-4.9 0.8 0 0 0 0 0-0.1 1.7-2 3.3-4.8 4.5-7.4 2.1-4.5 6.1-16.4 1.3-15.1 -7.8 2.4-17.9 17-11.9 24.3l0 0c0 0 0.7 0.8 1.9 1.7l0 0h0c1.6 1.2 4.2 2.4 7.3 1.9 0 0 1.9-0.5 3.7-1.7 0 0 0 0 0 0 0.3-0.2 0.6-0.4 0.8-0.6 0.6-0.5 1.1-1 1.5-1.6l0 0c1.5-2.2 2.4-5.8 4.6-6.1 -0.3 6.7 2.9 11.8 7.7 10.7 3.7-0.9 5.4-4.4 7-8.1 0 0 6.2-13.4 11-18.1C80-0.4 76.1 0.9 73.7 1.2zM44.6 4.8c-0.9 5-3.8 11.4-8.3 15C37 13.4 41.6 9.6 44.6 4.8z"/></svg>