<svg width="40" height="8" viewBox="0 0 40 8" version="1.1" xmlns="http://www.w3.org/2000/svg" xmlns:xlink="http://www.w3.org/1999/xlink">
<title>arrow</title>
<desc>Created using Figma</desc>
<g id="Canvas" transform="translate(5804 -1467)">
<clipPath id="clip-0" clip-rule="evenodd">
<path d="M -5804 1467L -5764 1467L -5764 1475L -5804 1475L -5804 1467Z" fill="#FFFFFF"/>
</clipPath>
<g id="arrow" clip-path="url(#clip-0)">
<path d="M -5804 1467L -5764 1467L -5764 1475L -5804 1475L -5804 1467Z" fill="#FFFFFF"/>
<g id="Arrow">
<use xlink:href="#path0_stroke" transform="translate(-5803 1471)"/>
</g>
<g id="Vector 2">
<use xlink:href="#path1_stroke" transform="translate(-5768.5 1467.5)"/>
</g>
</g>
</g>
<defs>
<path id="path0_stroke" d="M 0 -0.5C -0.276142 -0.5 -0.5 -0.276142 -0.5 0C -0.5 0.276142 -0.276142 0.5 0 0.5L 0 -0.5ZM 38 0.5C 38.2761 0.5 38.5 0.276142 38.5 0C 38.5 -0.276142 38.2761 -0.5 38 -0.5L 38 0.5ZM 0 0.5L 38 0.5L 38 -0.5L 0 -0.5L 0 0.5Z"/>
<path id="path1_stroke" d="M 3.5 3.5L 3.85355 3.85355C 4.04882 3.65829 4.04882 3.34171 3.85355 3.14645L 3.5 3.5ZM 0.353553 -0.353553C 0.158291 -0.548816 -0.158291 -0.548816 -0.353553 -0.353553C -0.548816 -0.158291 -0.548816 0.158291 -0.353553 0.353553L 0.353553 -0.353553ZM -0.353553 6.64645C -0.548816 6.84171 -0.548816 7.15829 -0.353553 7.35355C -0.158291 7.54882 0.158291 7.54882 0.353553 7.35355L -0.353553 6.64645ZM 3.85355 3.14645L 0.353553 -0.353553L -0.353553 0.353553L 3.14645 3.85355L 3.85355 3.14645ZM 3.14645 3.14645L -0.353553 6.64645L 0.353553 7.35355L 3.85355 3.85355L 3.14645 3.14645Z"/>
</defs>
</svg>
